<?xml version="1.0" encoding="UTF-8" standalone="no"?>
<svg
   xmlns:dc="http://purl.org/dc/elements/1.1/"
   xmlns:cc="http://creativecommons.org/ns#"
   xmlns:rdf="http://www.w3.org/1999/02/22-rdf-syntax-ns#"
   xmlns:svg="http://www.w3.org/2000/svg"
   xmlns="http://www.w3.org/2000/svg"
   xmlns:sodipodi="http://sodipodi.sourceforge.net/DTD/sodipodi-0.dtd"
   xmlns:inkscape="http://www.inkscape.org/namespaces/inkscape"
   version="1.1"
   id="Capa_1"
   x="0px"
   y="0px"
   width="32.02px"
   height="32.02px"
   viewBox="0 0 32.02 32.02"
   style="enable-background:new 0 0 32.02 32.02;"
   xml:space="preserve"
   sodipodi:docname="sort-up.svg"
   inkscape:version="1.0.1 (3bc2e813f5, 2020-09-07)"><metadata
   id="metadata41"><rdf:RDF><cc:Work
       rdf:about=""><dc:format>image/svg+xml</dc:format><dc:type
         rdf:resource="http://purl.org/dc/dcmitype/StillImage" /><dc:title></dc:title></cc:Work></rdf:RDF></metadata><defs
   id="defs39" /><sodipodi:namedview
   pagecolor="#ffffff"
   bordercolor="#666666"
   borderopacity="1"
   objecttolerance="10"
   gridtolerance="10"
   guidetolerance="10"
   inkscape:pageopacity="0"
   inkscape:pageshadow="2"
   inkscape:window-width="1208"
   inkscape:window-height="656"
   id="namedview37"
   showgrid="false"
   inkscape:zoom="5.6075681"
   inkscape:cx="14.393612"
   inkscape:cy="22.148157"
   inkscape:window-x="72"
   inkscape:window-y="27"
   inkscape:window-maximized="1"
   inkscape:current-layer="Capa_1" />
<g
   id="g4"
   transform="matrix(1,0,0,-1,0,32.019434)">
	<path
   d="m 32.02,27.26 c 0,0.274 -0.225,0.5 -0.5,0.5 -0.004,10e-4 -0.012,0 -0.021,0 h -31 c -0.185,0 -0.353,-0.103 -0.438,-0.261 -0.088,-0.161 -0.08,-0.357 0.02,-0.512 L 14.665,4.488 c 0.09,-0.14 0.241,-0.225 0.406,-0.229 0.172,-0.001 0.32,0.071 0.418,0.205 L 31.838,26.87 c 0.11,0.095 0.182,0.234 0.182,0.39 z"
   id="path2" />
</g>
<g
   id="g6">
</g>
<g
   id="g8">
</g>
<g
   id="g10">
</g>
<g
   id="g12">
</g>
<g
   id="g14">
</g>
<g
   id="g16">
</g>
<g
   id="g18">
</g>
<g
   id="g20">
</g>
<g
   id="g22">
</g>
<g
   id="g24">
</g>
<g
   id="g26">
</g>
<g
   id="g28">
</g>
<g
   id="g30">
</g>
<g
   id="g32">
</g>
<g
   id="g34">
</g>
</svg>
